<?xml version="1.0" encoding="UTF-8" standalone="no"?>
<!DOCTYPE svg PUBLIC "-//W3C//DTD SVG 1.1//EN" "http://www.w3.org/Graphics/SVG/1.1/DTD/svg11.dtd">
<svg width="100%" height="100%" viewBox="0 0 43 70" version="1.1" xmlns="http://www.w3.org/2000/svg" xmlns:xlink="http://www.w3.org/1999/xlink" xml:space="preserve" xmlns:serif="http://www.serif.com/" style="fill-rule:evenodd;clip-rule:evenodd;stroke-linejoin:round;stroke-miterlimit:2;">
    <g transform="matrix(1,0,0,1,-4686.88,-4137.12)">
        <g transform="matrix(0.670205,0,0,0.699562,2615.32,-3248.47)">
            <g transform="matrix(2.05803,0,0,2.0737,3090.93,10554.6)">
                <path d="M0.004,26.789C-0.001,34.665 9.729,43.351 15.552,43.652L15.536,43.652C21.358,43.351 31.09,34.665 31.084,26.789C31.122,16.095 31.085,1.368 31.085,1.368L0.004,1.371L0.004,26.789Z" style="fill:rgb(0,53,96);fill-rule:nonzero;"/>
                <rect x="15.314" y="12.084" width="0.988" height="27.379" style="fill:rgb(153,219,249);fill-rule:nonzero;"/>
                <path d="M22.334,11.916C23.216,11.912 24.643,11.92 25.568,11.92C25.855,11.92 26.326,11.835 26.062,12.469C25.828,13.03 25.492,13.812 25.346,14.149C24.859,14.149 22.88,14.15 22.875,14.141C22.717,13.774 22.491,13.252 22.204,12.589C22.052,12.236 21.976,11.916 22.334,11.916ZM21.886,21.513L26.766,21.513C28.206,21.513 28.337,21.71 28.439,22.019C28.378,21.54 28.068,19.082 27.852,17.304C27.795,16.839 27.632,15.562 26.988,14.802C26.785,14.557 26.687,14.435 26.249,14.248C26.283,14.15 26.681,13.161 26.977,12.361C27.128,11.953 26.964,11.546 26.652,11.355C26.381,11.192 26.032,11.185 25.783,11.185C24.111,11.185 22.819,11.188 22.304,11.188C21.41,11.188 20.995,11.756 21.268,12.443C21.476,12.963 21.82,13.85 21.978,14.255C20.878,14.623 20.515,16.123 20.356,17.423C20.09,19.614 19.73,22.537 19.705,22.712C19.666,22.99 19.62,23.221 20.077,23.242C20.944,23.298 21.956,23.304 23.661,23.26C23.826,23.352 24.039,23.41 24.317,23.401C24.594,23.396 24.796,23.323 24.941,23.221C25.636,23.196 26.427,23.164 27.332,23.127C26.537,23.108 25.793,23.086 25.104,23.066C25.352,22.758 25.327,22.336 25.304,22.254C25.201,23.396 23.717,23.287 24.084,22.075C23.925,22.075 23.512,22.075 23.249,22.29C23.178,22.467 23.203,22.763 23.372,23.008C22.409,22.966 21.615,22.93 21.042,22.898C20.747,22.883 20.605,22.671 20.754,22.474C21.376,21.663 21.411,21.513 21.886,21.513Z" style="fill:rgb(255,207,56);fill-rule:nonzero;"/>
                <path d="M15.577,39.346C15.577,39.667 15.363,39.929 15.097,39.929C14.832,39.929 14.615,39.667 14.615,39.346L14.615,36.629C14.615,36.31 14.832,36.048 15.097,36.048C15.363,36.048 15.577,36.31 15.577,36.629L15.577,39.346Z" style="fill:white;fill-rule:nonzero;"/>
                <path d="M8.878,7.084C9.032,7.02 9.251,7.036 9.455,7.036C9.23,6.849 9.026,6.776 8.903,6.744C8.616,5.657 7.043,5.952 6.888,6.916C6.832,7.264 5.597,7.417 4.181,9.31C3.528,10.18 2.626,10.934 2.354,11.108C2.079,11.279 2.748,11.228 3.057,10.901C3.347,11.194 3.916,10.316 4.774,10.168C5,10.132 7.849,9.614 7.098,7.983C8.102,9.274 6.429,10.203 5.375,10.306C5.468,10.354 6.016,10.397 6.079,10.422C6.236,10.478 6.032,10.668 6.16,10.741C6.467,10.911 7.075,11.485 7.075,11.485C7.075,11.485 7.423,11.367 7.265,11.211C6.795,10.901 6.668,10.807 6.548,10.613C6.54,10.602 6.388,10.316 6.698,10.234C7.144,10.199 8.604,9.68 8.356,7.849C8.316,7.559 8.52,7.246 8.878,7.084Z" style="fill:rgb(226,160,53);fill-rule:nonzero;"/>
                <path d="M8.665,6.78C8.665,6.876 8.594,6.951 8.506,6.951C8.421,6.951 8.349,6.876 8.349,6.78C8.349,6.687 8.421,6.607 8.506,6.607C8.594,6.607 8.665,6.687 8.665,6.78Z" style="fill:rgb(0,53,96);fill-rule:nonzero;"/>
                <rect x="16.023" y="35.945" width="0.527" height="3.847" style="fill:white;fill-rule:nonzero;"/>
                <path d="M17.019,40.392C17.175,40.227 17.27,40.006 17.27,39.761C17.27,39.257 16.861,38.847 16.355,38.847L14.798,38.847C14.293,38.847 13.882,39.257 13.882,39.761C13.882,39.998 13.973,40.21 14.118,40.373C13.93,40.542 13.594,40.867 13.501,40.977C14.546,41.439 16.531,41.401 17.649,40.971C17.544,40.88 17.187,40.552 17.019,40.392Z" style="fill:rgb(255,207,56);fill-rule:nonzero;"/>
                <path d="M15.553,8.82C15.553,8.842 15.551,8.837 15.551,8.813C14.875,8.209 12.705,7.951 11.309,8.308C11.4,8.477 11.513,9.019 11.573,9.235C13.633,8.55 15.551,9.552 15.551,9.552L15.551,9.532C15.551,9.539 15.551,9.549 15.553,9.554C15.553,9.554 17.471,8.554 19.533,9.24C19.589,9.023 19.704,8.483 19.796,8.316C18.398,7.956 16.229,8.213 15.553,8.82Z" style="fill:rgb(153,219,249);fill-rule:nonzero;"/>
                <rect x="16.177" y="12.083" width="0.307" height="21.214" style="fill:white;fill-rule:nonzero;"/>
                <rect x="14.631" y="12.084" width="0.983" height="19.684" style="fill:white;fill-rule:nonzero;"/>
                <path d="M16.554,19.657C16.618,19.427 16.648,18.857 16.554,18.679C16.093,18.679 15.376,18.682 14.958,18.672C15.915,19.021 16.554,19.657 16.554,19.657Z" style="fill:rgb(0,53,96);fill-rule:nonzero;"/>
                <path d="M13.105,37.182C13.655,37.265 16.607,37.404 16.607,37.404L17.089,38.657C17.089,38.657 14.512,38.589 13.105,37.182Z" style="fill:rgb(0,53,96);fill-rule:nonzero;"/>
                <path d="M25.188,28.204C24.265,27.607 23.145,28.065 21.932,27.048C21.936,30.207 24.237,30.841 22.942,31.684C21.788,32.438 20.67,32.626 19.51,32.529C19.608,32.372 19.782,32.084 19.921,31.941C18.499,31.758 17.258,31.861 16.738,31.922C14.967,31.402 13.003,30.745 10.637,30.709C11.067,31.06 11.489,31.666 11.489,32.713C11.13,31.3 9.661,30.561 8.939,30.28C8.723,30.198 8.521,30.16 8.311,30.126C8.205,30.27 7.977,30.513 7.593,30.656C7.375,30.54 7.196,30.747 7.226,30.815C7.238,30.849 7.234,30.882 7.208,30.916C6.997,31.19 6.303,31.06 5.787,30.88C5.192,30.675 5.216,31.085 5.332,31.29C5.518,31.62 5.699,31.834 5.787,32.018C6.577,33.631 7.162,34.69 8.914,35.692C10.578,36.92 12.67,37.553 14.798,37.625C15.575,37.904 17.358,38.395 19.595,38.038C19.16,37.746 18.726,37.456 18.582,37.166C21.424,36.345 23.88,34.478 24.886,31.66C24.897,31.629 24.908,31.598 24.919,31.567C25.099,30.95 24.502,30.13 23.652,30.938C24.388,29.171 25.605,29.936 25.347,30.981C26.318,29.674 27.617,28.269 29.352,27.735C27.767,27.005 26.211,27.638 25.188,28.204Z" style="fill:rgb(153,219,249);fill-rule:nonzero;"/>
                <path d="M16.585,25.447C16.65,25.215 16.678,24.644 16.585,24.469C16.122,24.469 15.407,24.475 14.991,24.462C15.945,24.811 16.585,25.447 16.585,25.447Z" style="fill:rgb(0,53,96);fill-rule:nonzero;"/>
                <path d="M17.256,23.586C17.256,24.094 16.84,24.504 16.328,24.504L14.75,24.504C14.238,24.504 13.822,24.094 13.822,23.586C13.822,23.081 14.238,22.673 14.75,22.673L16.328,22.673C16.84,22.673 17.256,23.081 17.256,23.586Z" style="fill:rgb(255,207,56);fill-rule:nonzero;"/>
                <path d="M16.301,24.193C15.376,24.203 14.581,24.193 14.581,24.193C14.581,24.193 15.884,24.115 16.711,23.232C16.928,23.377 16.968,24.19 16.301,24.193Z" style="fill:rgb(226,160,53);fill-rule:nonzero;"/>
                <path d="M16.6,31.318C16.665,31.089 16.691,30.516 16.6,30.34C16.138,30.34 15.424,30.346 15.005,30.333C15.96,30.683 16.6,31.318 16.6,31.318Z" style="fill:rgb(0,53,96);fill-rule:nonzero;"/>
                <path d="M17.269,29.431C17.269,29.938 16.854,30.348 16.341,30.348L14.764,30.348C14.251,30.348 13.837,29.938 13.837,29.431C13.837,28.924 14.251,28.519 14.764,28.519L16.341,28.519C16.854,28.519 17.269,28.924 17.269,29.431Z" style="fill:rgb(255,207,56);fill-rule:nonzero;"/>
                <path d="M16.313,30.037C15.387,30.045 14.594,30.035 14.594,30.035C14.594,30.035 15.895,29.963 16.723,29.075C16.94,29.222 16.982,30.033 16.313,30.037Z" style="fill:rgb(226,160,53);fill-rule:nonzero;"/>
                <rect x="14.155" y="13.571" width="2.789" height="2.739" style="fill:rgb(255,207,56);fill-rule:nonzero;"/>
                <path d="M16.944,16.306C16.471,16.42 16.502,16.816 16.484,16.962C16.484,16.962 15.359,16.97 14.621,16.962C14.627,16.92 14.644,16.377 14.155,16.306C14.155,16.306 16.765,16.308 16.944,16.306Z" style="fill:rgb(226,160,53);fill-rule:nonzero;"/>
                <rect x="15.784" y="13.571" width="0.756" height="2.773" style="fill:rgb(226,160,53);fill-rule:nonzero;"/>
                <path d="M6.714,30.597C6.574,30.544 6.499,30.425 6.46,30.335C6.37,30.136 6.373,29.869 6.471,29.616C6.567,29.368 6.744,29.165 6.949,29.075C7.037,29.037 7.173,29.002 7.312,29.055C7.517,29.137 7.634,29.366 7.634,29.641C7.634,29.768 7.609,29.903 7.558,30.035C7.463,30.286 7.283,30.487 7.082,30.579C6.992,30.616 6.857,30.653 6.714,30.597ZM6.8,28.743C6.506,28.872 6.261,29.142 6.13,29.484C5.996,29.829 5.996,30.191 6.125,30.487C6.219,30.7 6.382,30.862 6.583,30.94C6.783,31.017 7.013,31.005 7.228,30.91C7.522,30.783 7.767,30.511 7.9,30.171C8.138,29.555 7.931,28.905 7.445,28.715C7.244,28.636 7.015,28.646 6.8,28.743Z" style="fill:rgb(255,207,56);fill-rule:nonzero;"/>
                <path d="M7.213,30.499C7.056,30.449 6.668,30.335 6.202,30.32C5.871,30.31 5.549,30.119 5.568,30.021C5.586,29.951 5.672,29.915 5.811,29.895C6.13,29.851 6.823,29.888 7.57,30.009C7.507,30.189 7.406,30.355 7.213,30.499Z" style="fill:rgb(153,219,249);fill-rule:nonzero;"/>
                <path d="M8.391,8.265C8.379,9.656 7.313,10.095 7.007,10.175C7.108,9.866 7.543,8.423 8.391,8.265Z" style="fill:rgb(239,64,45);fill-rule:nonzero;"/>
                <path d="M17.278,17.772C17.278,18.28 16.865,18.693 16.35,18.693L14.774,18.693C14.26,18.693 13.846,18.28 13.846,17.772C13.846,17.269 14.26,16.859 14.774,16.859L16.35,16.859C16.865,16.859 17.278,17.269 17.278,17.772Z" style="fill:rgb(255,207,56);fill-rule:nonzero;"/>
                <path d="M16.326,18.378C15.399,18.389 14.603,18.378 14.603,18.378C14.603,18.378 15.906,18.3 16.734,17.416C16.951,17.564 16.992,18.375 16.326,18.378Z" style="fill:rgb(226,160,53);fill-rule:nonzero;"/>
                <path d="M10.145,31.052C11.15,31.724 11.489,32.713 11.489,32.713C11.489,32.713 11.824,31.885 11.366,31.243C12.281,30.977 13.869,31.393 15.303,31.954C17.406,32.778 18.98,33.052 20.582,32.778C22.183,32.506 23.026,32.173 23.542,31.374C23.815,30.946 24.625,31.037 24.397,31.678C24.168,32.319 23.175,34.15 21.299,34.655C19.422,35.157 16.325,35.998 11.746,34.852C10.521,34.545 7.643,33.781 6.467,32.27C6.231,31.967 6.17,31.404 6.159,31.314C6.145,31.205 6.217,31.149 6.474,31.193C7.281,31.335 7.435,31.027 7.734,30.687C8.065,30.644 9.229,30.442 10.145,31.052Z" style="fill:white;fill-rule:nonzero;"/>
                <path d="M24.061,31.548C22.661,34.209 19.955,34.622 17.123,34.708C15.974,34.74 14.826,34.597 13.838,34.344C14.67,34.429 15.532,34.362 16.058,34.179C15.853,33.112 14.032,32.337 12.761,32.268C12.52,31.994 12.451,31.638 11.867,31.431C12.279,31.808 12.246,32.337 12.451,32.61C13.49,32.822 14.759,33.087 15.37,33.904C15.154,34.181 13.274,34.027 12.249,33.793C11.806,33.631 11.346,33.364 11.101,32.886C10.611,33.434 9.833,33.237 9.034,32.838C9.022,32.528 8.832,32.255 8.418,32.175C8.508,32.311 8.531,32.452 8.532,32.567C7.628,32.047 6.768,31.41 6.335,31.443C5.722,31.49 7.674,34.914 9.322,35.279C14.218,38.101 22.399,36.862 24.337,32.098C24.61,31.41 24.37,30.964 24.061,31.548Z" style="fill:rgb(12,154,215);fill-rule:nonzero;"/>
                <path d="M8.598,32.521C8.625,32.818 8.391,33.087 8.073,33.118C7.757,33.154 7.475,32.934 7.445,32.634C7.416,32.333 7.649,32.064 7.967,32.034C8.284,32.003 8.566,32.22 8.598,32.521Z" style="fill:white;fill-rule:nonzero;"/>
                <path d="M8.321,32.578C8.321,32.725 8.186,32.842 8.019,32.842C7.855,32.842 7.72,32.725 7.72,32.578C7.72,32.431 7.855,32.31 8.019,32.31C8.186,32.31 8.321,32.431 8.321,32.578Z" style="fill:rgb(0,53,96);fill-rule:nonzero;"/>
                <path d="M22.352,27.697C22.016,28.856 23.451,30.419 23.451,30.419C23.451,30.419 22.801,28.392 22.352,27.697Z" style="fill:white;fill-rule:nonzero;"/>
                <path d="M23.359,27.946C22.866,28.624 23.793,30.169 23.793,30.169C23.793,30.169 23.742,28.934 23.359,27.946Z" style="fill:white;fill-rule:nonzero;"/>
                <path d="M24.913,29.71C25.304,28.863 26.083,28.017 26.908,27.717C25.189,27.925 24.801,29.068 24.913,29.71Z" style="fill:white;fill-rule:nonzero;"/>
                <path d="M15.549,4.019C14.824,2.614 13.788,3.696 11.972,3.134C11.651,4.62 11.33,7.279 11.239,7.736C12.48,8.109 13.571,6.949 15.053,7.915C14.894,5.998 15.512,4.401 15.512,4.401C15.512,4.401 15.531,4.167 15.549,4.019Z" style="fill:white;fill-rule:nonzero;"/>
                <path d="M15.554,4.014C15.41,3.765 15.272,3.553 15.032,3.417C14.819,5.699 14.765,6.194 14.041,7.534C14.491,7.591 14.823,7.757 15.055,7.921C14.894,6 15.552,4.493 15.552,4.493C15.552,4.493 15.549,4.095 15.554,4.014Z" style="fill:rgb(153,219,249);fill-rule:nonzero;"/>
                <path d="M19.132,3.127C17.316,3.689 16.277,2.608 15.554,4.014C15.552,4.493 15.551,8.035 15.557,8.299C17.298,6.672 18.493,8.141 19.865,7.729C19.773,7.272 19.452,4.615 19.132,3.127Z" style="fill:white;fill-rule:nonzero;"/>
                <rect x="15.048" y="10.911" width="1.01" height="1.173" style="fill:rgb(255,207,56);fill-rule:nonzero;"/>
                <path d="M15.559,9.786L16.062,10.664L15.043,10.668L15.559,9.786Z" style="fill:rgb(255,207,56);fill-rule:nonzero;"/>
                <path d="M7.063,13.252L7.063,13.246C7.055,13.242 7.056,13.247 7.063,13.252Z" style="fill:rgb(0,147,73);fill-rule:nonzero;"/>
                <path d="M11.127,19.003C11.127,19.003 12.512,18.319 12.649,17.616C12.22,17.204 11.137,17.159 11.137,17.159C11.137,17.159 12.381,16.212 12.329,15.525C11.708,15.236 10.602,15.404 10.602,15.404C11.115,14.694 11.261,14.13 11.241,13.634C10.595,13.526 9.597,13.909 9.597,13.909C9.597,13.909 9.932,12.717 9.603,12.099C9.005,11.939 8.162,12.993 8.162,12.993C8.162,12.993 7.862,11.689 7.162,10.996C6.46,11.689 6.153,12.993 6.153,12.993C6.153,12.993 5.311,11.939 4.71,12.099C4.385,12.717 4.718,13.909 4.718,13.909C4.718,13.909 3.721,13.526 3.071,13.634C3.054,14.13 3.201,14.694 3.713,15.404C3.713,15.404 2.605,15.236 1.987,15.525C1.935,16.212 3.178,17.159 3.178,17.159C3.178,17.159 2.093,17.204 1.666,17.616C1.804,18.319 3.19,19.003 3.19,19.003C3.19,19.003 2.365,19.172 1.862,19.743C2.182,20.169 2.905,20.577 3.469,20.67C2.981,21.063 2.708,21.371 2.584,21.6C3.377,22.241 5.041,22.332 6.704,21.814C6.704,22.132 6.708,24.699 6.319,25.874L7.995,25.874C7.607,24.699 7.612,22.132 7.612,21.814C9.274,22.332 10.94,22.241 11.731,21.6C11.606,21.371 11.335,21.063 10.848,20.67C11.412,20.577 12.132,20.169 12.454,19.743C11.949,19.172 11.127,19.003 11.127,19.003Z" style="fill:rgb(128,195,65);fill-rule:nonzero;"/>
                <path d="M9.612,19.049C9.768,18.962 10.573,18.717 10.984,17.999C10.573,17.601 9.612,17.586 9.612,17.586C9.612,17.586 10.467,17.023 10.756,16.18C10.022,15.967 9.261,16.18 9.261,16.18C9.261,16.18 9.886,15.294 9.963,14.547C9.261,14.624 8.514,14.994 8.514,14.994C8.726,14.532 8.833,13.879 8.741,13.312C8.391,13.381 8.071,13.781 7.879,14.031C7.701,13.462 7.398,13.283 7.192,13.168C6.85,13.671 6.781,13.997 6.824,14.685C6.939,14.571 7.122,14.39 7.421,14.218C7.603,15.201 7.253,15.915 7.253,15.915C7.253,15.915 7.686,15.633 8.258,15.566C8.282,16.107 8.083,16.669 7.512,17.333C7.512,17.333 8.015,17.029 8.596,16.983C8.503,17.747 8.037,18.257 7.556,18.693C7.877,18.542 8.427,18.556 8.808,18.679C8.611,19.258 8.158,19.55 7.498,19.913C7.907,19.913 8.328,19.967 8.563,20.126C8.298,20.623 7.649,20.86 7.2,20.988C8.238,21.384 9.244,21.549 10.229,21.31C10.161,21.017 9.787,20.66 9.352,20.41C9.75,20.319 10.343,20.195 10.863,19.752C10.527,19.416 10.114,19.188 9.612,19.049Z" style="fill:rgb(0,152,76);fill-rule:nonzero;"/>
                <path d="M4.046,41.428C4.282,42.213 3.654,43.734 4.1,44.611C3.719,44.598 1.296,45.041 0.939,44.728C0.585,44.415 -0.356,43.746 0.585,43.233C1.53,42.723 3.916,41.806 4.046,41.428Z" style="fill:rgb(153,219,249);fill-rule:nonzero;"/>
                <path d="M27.169,41.348C27.447,43.864 27.024,44.147 27.05,44.87C27.287,44.931 29.213,45.331 29.894,44.966C30.575,44.598 31.046,43.707 30.731,43.341C30.418,42.973 28.847,41.978 28.219,41.873C27.59,41.766 27.341,41.534 27.169,41.348Z" style="fill:rgb(153,219,249);fill-rule:nonzero;"/>
                <path d="M30.177,42.562C29.131,42 27.577,41.662 26.699,40.46C26.369,41.669 27.168,42.364 27.136,44.142C27.876,42.761 27.267,42.421 27.392,41.767C27.987,42.526 28.881,42.636 29.504,42.96C30.3,43.376 30.788,44.295 29.141,44.29C25.924,44.283 5.277,44.294 1.989,44.294C0.289,44.294 0.787,43.381 1.583,42.966C2.208,42.641 3.112,42.532 3.706,41.751C3.83,42.405 3.213,42.741 3.957,44.123C3.923,42.343 4.715,41.679 4.401,40.46C3.524,41.662 1.945,42 0.896,42.562C0.006,43.036 0.004,43.352 0.004,44.877C0.004,45.9 0.009,47.191 0,48.056C-0.005,48.664 0.701,49.022 1.544,48.999L29.53,48.999C30.372,49.022 31.09,48.672 31.09,48.065C31.095,47.198 31.081,45.891 31.09,44.87C31.103,43.301 31.067,43.036 30.177,42.562Z" style="fill:rgb(0,53,96);fill-rule:nonzero;"/>
                <path d="M1.559,45.612L2.158,45.612L2.574,46.772C2.583,46.795 2.606,46.889 2.642,47.049C2.682,46.889 2.706,46.795 2.716,46.772L3.124,45.612L3.726,45.612L2.858,47.685L2.429,47.685L1.559,45.612Z" style="fill:white;fill-rule:nonzero;"/>
                <rect x="4.053" y="45.612" width="0.573" height="2.073" style="fill:white;fill-rule:nonzero;"/>
                <path d="M6.334,46.914L6.124,46.229C6.114,46.195 6.089,46.102 6.052,45.949C6.015,46.102 5.989,46.195 5.98,46.229L5.771,46.914L6.334,46.914ZM5.696,45.612L6.404,45.612L7.119,47.685L6.556,47.685L6.454,47.312L5.651,47.312L5.542,47.685L4.981,47.685L5.696,45.612Z" style="fill:white;fill-rule:nonzero;"/>
                <path d="M8.237,45.612L8.837,45.612L9.251,46.772C9.261,46.795 9.282,46.889 9.321,47.049C9.358,46.889 9.384,46.795 9.393,46.772L9.805,45.612L10.404,45.612L9.535,47.685L9.107,47.685L8.237,45.612Z" style="fill:white;fill-rule:nonzero;"/>
                <path d="M10.717,45.612L11.987,45.612L11.987,46.068L11.267,46.068L11.267,46.428L11.945,46.428L11.945,46.871L11.267,46.871L11.267,47.221L11.987,47.221L11.987,47.685L10.717,47.685L10.717,45.612Z" style="fill:white;fill-rule:nonzero;"/>
                <path d="M13.14,46.592C13.376,46.592 13.489,46.518 13.489,46.334C13.489,46.119 13.382,46.049 13.148,46.049L13.034,46.049L13.034,46.592L13.14,46.592ZM12.503,45.612L13.129,45.612C13.416,45.612 13.637,45.615 13.815,45.751C13.963,45.868 14.044,46.043 14.044,46.261C14.044,46.581 13.884,46.785 13.583,46.851L14.147,47.685L13.509,47.685L13.034,46.873L13.034,47.685L12.503,47.685L12.503,45.612Z" style="fill:white;fill-rule:nonzero;"/>
                <rect x="14.521" y="45.612" width="0.571" height="2.073" style="fill:white;fill-rule:nonzero;"/>
                <path d="M15.99,46.102L15.529,46.102L15.529,45.612L17.018,45.612L17.018,46.102L16.554,46.102L16.554,47.685L15.99,47.685L15.99,46.102Z" style="fill:white;fill-rule:nonzero;"/>
                <path d="M18.547,46.914L18.335,46.229C18.326,46.195 18.304,46.102 18.266,45.949C18.23,46.102 18.203,46.195 18.192,46.229L17.985,46.914L18.547,46.914ZM17.91,45.612L18.615,45.612L19.331,47.685L18.771,47.685L18.665,47.312L17.864,47.312L17.757,47.685L17.193,47.685L17.91,45.612Z" style="fill:white;fill-rule:nonzero;"/>
                <path d="M20.26,47.298C20.415,47.298 20.518,47.207 20.518,47.085C20.518,46.919 20.405,46.871 20.169,46.808C19.797,46.712 19.615,46.562 19.615,46.238C19.615,45.852 19.895,45.565 20.331,45.565C20.562,45.565 20.764,45.624 20.942,45.749L20.766,46.154C20.636,46.043 20.498,45.99 20.37,45.99C20.231,45.99 20.14,46.065 20.14,46.163C20.14,46.311 20.284,46.343 20.471,46.393C20.837,46.491 21.043,46.626 21.043,47.01C21.043,47.439 20.734,47.741 20.248,47.741C19.956,47.741 19.734,47.646 19.513,47.436L19.767,47.016C19.933,47.205 20.096,47.298 20.26,47.298Z" style="fill:white;fill-rule:nonzero;"/>
                <path d="M22.278,45.612L22.878,45.612L23.293,46.772C23.301,46.795 23.325,46.889 23.36,47.049C23.399,46.889 23.424,46.795 23.433,46.772L23.845,45.612L24.446,45.612L23.577,47.685L23.148,47.685L22.278,45.612Z" style="fill:white;fill-rule:nonzero;"/>
                <rect x="24.772" y="45.612" width="0.572" height="2.073" style="fill:white;fill-rule:nonzero;"/>
                <path d="M26.242,46.102L25.782,46.102L25.782,45.612L27.271,45.612L27.271,46.102L26.806,46.102L26.806,47.685L26.242,47.685L26.242,46.102Z" style="fill:white;fill-rule:nonzero;"/>
                <path d="M28.799,46.914L28.586,46.229C28.578,46.195 28.557,46.102 28.52,45.949C28.479,46.102 28.455,46.195 28.446,46.229L28.239,46.914L28.799,46.914ZM28.162,45.612L28.869,45.612L29.584,47.685L29.022,47.685L28.918,47.312L28.116,47.312L28.007,47.685L27.446,47.685L28.162,45.612Z" style="fill:white;fill-rule:nonzero;"/>
                <path d="M16.677,39.253C16.814,39.416 16.908,40.184 16.242,40.238C15.097,40.328 14.546,40.214 14.546,40.214C14.546,40.214 16.082,40.033 16.677,39.253Z" style="fill:rgb(226,160,53);fill-rule:nonzero;"/>
                <path d="M21.841,15.73C21.911,14.79 22.355,14.571 22.964,14.585C23.306,14.593 23.822,14.598 25.074,14.588C24.369,14.65 23.49,15.021 23.376,15.937C23.269,16.789 23.262,19.739 23.241,20.996C22.623,21.019 21.796,20.998 21.613,21.044C21.704,19.739 21.772,16.669 21.841,15.73Z" style="fill:rgb(226,160,53);fill-rule:nonzero;"/>
                <rect x="15.564" y="10.911" width="0.306" height="1.173" style="fill:rgb(226,160,53);fill-rule:nonzero;"/>
                <path d="M15.87,10.668L15.559,9.786L15.559,10.664L15.87,10.668Z" style="fill:rgb(226,160,53);fill-rule:nonzero;"/>
            </g>
        </g>
    </g>
</svg>
